:SAMPLES-PER-SECOND 30
:FULLY-SPECIFIED
:DEGREES
373
root  1.74926 34.0353 17.2879 4.39261 29.1894 0.554707
LeftUpLeg  -7.5045 9.66761 0.598119
LeftLeg  13.9604 4.47731 0.80944
LeftFoot  -3.00219 -0.00726202 -0.223402
LeftToes  -15.1126 1.92152e-006 4.03786e-008
Spine  1.65939 1.57299 -2.16505
Spine1  2.93506 3.26843 -4.14312
RightShoulder  0.0543272 3.97133 5.15818
RightArm  -26.126 5.54676 72.7406
RightForeArm  32.1722 48.9277 11.6977
RightHand  2.23045 -11.1381 -22.1984
LeftShoulder1  0.0586559 0.37586 -10.3023
LeftArm  -22.2457 15.704 -64.2673
LeftForeArm  26.4353 -14.3825 -2.58735
LeftHand  0.263084 5.48093 4.85656
HEad  -2.81441 -23.4826 1.85141
RightUpLeg  -11.0229 -10.2983 -7.98229
RightLeg  8.81755 -0.19872 -0.0164278
RightFoot  8.90215 0.0250382 0.0475655
RightToes  -36.7472 -0.181854 -0.286543
374
root  1.77885 34.0309 17.2587 4.45089 28.9507 0.643714
LeftUpLeg  -7.53078 9.77646 0.443307
LeftLeg  14.008 4.58397 0.832644
LeftFoot  -3.08641 -0.00759713 -0.235101
LeftToes  -14.9275 1.92152e-006 4.03786e-008
Spine  1.66136 1.55324 -2.2523
Spine1  2.94003 3.22916 -4.31086
RightShoulder  0.0537176 3.75718 5.21448
RightArm  -25.1409 5.22832 72.9648
RightForeArm  32.0525 49.75 12.0495
RightHand  2.25007 -11.252 -22.1661
LeftShoulder1  0.0582588 0.388506 -10.3348
LeftArm  -22.4743 15.6785 -64.0622
LeftForeArm  26.5969 -14.2288 -2.5585
LeftHand  0.26274 5.44975 4.86015
HEad  -1.3987 -24.7234 2.2282
RightUpLeg  -11.1639 -10.4952 -8.11103
RightLeg  8.92152 0.283113 0.0273659
RightFoot  8.90006 0.0200442 0.123238
RightToes  -36.8658 -0.181809 -0.286573
375
root  1.81065 34.0252 17.2206 4.45856 28.6709 0.676658
LeftUpLeg  -7.55276 9.79996 0.317732
LeftLeg  14.0805 4.81772 0.881366
LeftFoot  -3.2213 -0.0072787 -0.258866
LeftToes  -14.6657 1.92152e-006 4.03786e-008
Spine  1.68029 1.51561 -2.31404
Spine1  2.9746 3.15798 -4.43531
RightShoulder  0.0529822 3.54405 5.24295
RightArm  -23.901 4.74313 73.2288
RightForeArm  32.1398 50.7814 12.5087
RightHand  2.251 -11.3676 -21.9503
LeftShoulder1  0.0577481 0.451131 -10.3571
LeftArm  -22.6325 15.6852 -63.9616
LeftForeArm  26.6203 -14.2324 -2.55916
LeftHand  0.262423 5.47333 4.93591
HEad  0.0362081 -25.9671 2.42665
RightUpLeg  -11.353 -10.6116 -8.19945
RightLeg  9.12721 0.722237 0.0702282
RightFoot  8.90523 0.0154362 0.192623
RightToes  -36.9275 -0.181741 -0.286578
376
root  1.84414 34.0207 17.1778 4.44823 28.3834 0.676149
LeftUpLeg  -7.57741 9.80538 0.220236
LeftLeg  14.1474 5.06308 0.932308
LeftFoot  -3.30275 -0.00806935 -0.279903
LeftToes  -14.5996 1.92152e-006 4.03786e-008
Spine  1.74151 1.44483 -2.3611
Spine1  3.09392 3.02199 -4.5332
RightShoulder  0.0521339 3.31635 5.28506
RightArm  -22.4845 4.15287 73.5789
RightForeArm  33.0719 52.0056 13.0815
RightHand  2.16206 -11.0834 -21.6293
LeftShoulder1  0.0571178 0.450283 -10.3961
LeftArm  -22.7118 15.6861 -63.8693
LeftForeArm  26.5871 -14.3556 -2.58225
LeftHand  0.259444 5.49649 4.8851
HEad  1.1519 -27.0701 2.46401
RightUpLeg  -11.5612 -10.7553 -8.25261
RightLeg  9.34473 1.15712 0.116096
RightFoot  8.94152 0.0108153 0.261893
RightToes  -37.0477 -0.181652 -0.286557
377
root  1.88517 34.0116 17.1267 4.34618 27.9908 0.636956
LeftUpLeg  -7.64224 10.2443 0.175078
LeftLeg  14.4732 4.94462 0.939534
LeftFoot  -3.58599 -0.0101994 -0.298673
LeftToes  -14.322 1.92152e-006 4.03786e-008
Spine  1.8657 1.36613 -2.37494
Spine1  3.33678 2.87948 -4.58156
RightShoulder  0.0511378 3.10956 5.27576
RightArm  -20.2252 3.27016 73.825
RightForeArm  35.1357 53.7715 13.9679
RightHand  2.08155 -10.5215 -21.9393
LeftShoulder1  0.0563621 0.407326 -10.3488
LeftArm  -22.6398 15.7146 -63.919
LeftForeArm  26.4013 -14.5938 -2.62701
LeftHand  0.257261 5.49123 4.88352
HEad  1.98999 -27.8092 2.38212
RightUpLeg  -11.8754 -11.0947 -8.27718
RightLeg  9.87671 1.89924 0.207456
RightFoot  8.80443 0.00339208 0.374324
RightToes  -37.0461 -0.18154 -0.28651
378
root  1.90721 34.0035 17.0665 4.21359 27.6915 0.547058
LeftUpLeg  -7.55954 10.0355 0.178403
LeftLeg  14.4285 5.32633 1.00769
LeftFoot  -3.68652 -0.0117186 -0.33291
LeftToes  -14.1707 1.92152e-006 4.03786e-008
Spine  2.05619 1.26995 -2.37281
Spine1  3.70821 2.70493 -4.60216
RightShoulder  0.0500083 2.86828 5.23721
RightArm  -17.3539 1.96969 73.8873
RightForeArm  38.5466 56.2861 15.3745
RightHand  1.91599 -9.38739 -22.638
LeftShoulder1  0.0554751 0.341699 -10.2344
LeftArm  -22.4443 15.568 -64.033
LeftForeArm  26.2227 -14.86 -2.67716
LeftHand  0.254905 5.47625 4.88982
HEad  2.78881 -28.2675 2.28922
RightUpLeg  -12.3884 -11.2955 -8.24137
RightLeg  10.8519 2.40384 0.303592
RightFoot  8.42177 -0.000899594 0.437782
RightToes  -36.7856 -0.181405 -0.286435
